<?xml version="1.0"?>
<svg xmlns="http://www.w3.org/2000/svg" height="512px" viewBox="0 0 37 56" width="512px"><g><g id="002---Chess"><path id="Shape" d="m30.043 30h3.135c.238-.647.478-1.313.712-2h-3.211c-.202.686-.414 1.3526667-.636 2z" data-original="#000000" class="active-path" data-old_color="#000000" fill="#B9831C"/><path id="Shape" d="m5 49v2h28v-2c0-.5522847-.4477153-1-1-1h-26c-.55228475 0-1 .4477153-1 1z" data-original="#000000" class="active-path" data-old_color="#000000" fill="#B9831C"/><path id="Shape" d="m31.2 26h3.323c.1906667-.648.3666667-1.3146667.528-2h-3.451c-.114.685-.247 1.351-.4 2z" data-original="#000000" class="active-path" data-old_color="#000000" fill="#B9831C"/><path id="Shape" d="m27.086 44c.048.854.13 1.531.2 2h3.514c-.074-.518-.148-1.2-.2-2z" data-original="#000000" class="active-path" data-old_color="#000000" fill="#B9831C"/><path id="Shape" d="m27.446 37.905c0 .033-.009.063-.014.095h3.408c.051-.38.107-.767.174-1.165.045-.272.117-.555.181-.835h-3.274c-.1985971.6242771-.3572513 1.2605638-.475 1.905z" data-original="#000000" class="active-path" data-old_color="#000000" fill="#B9831C"/><path id="Shape" d="m31.9 18.447 3.921-.475c.011-.8-.012-1.625-.082-2.472l-3.992 1.177c.071.602.119 1.191.153 1.77z" data-original="#000000" class="active-path" data-old_color="#000000" fill="#B9831C"/><path id="Shape" d="m29.045 32.767c-.157.425-.308.832-.453 1.233h3.149c.211-.65.45-1.321.7-2h-3.112c-.095.258-.19.515-.284.767z" data-original="#000000" class="active-path" data-old_color="#000000" fill="#B9831C"/><path id="Shape" d="m27.056 42h3.5c.005-.621.03-1.289.081-2h-3.463c-.068.714-.104 1.381-.118 2z" data-original="#000000" class="active-path" data-old_color="#000000" fill="#B9831C"/><path id="Shape" d="m35.714 20-3.781.458c-.014.524-.045 1.038-.088 1.543h3.611c.108-.6513333.194-1.3183333.258-2.001z" data-original="#000000" class="active-path" data-old_color="#000000" fill="#B9831C"/><path id="Shape" d="m19.091 5.063c-.506-1.674-1.777-4.453-4.742-5.063.3494241 1.63059607.5601767 3.2878471.63 4.954 1.3715906-.05102688 2.7450389-.01461981 4.112.109z" data-original="#000000" class="active-path" data-old_color="#000000" fill="#B9831C"/><path id="Shape" d="m1.936 23.248c.35502127.4712876.90996114.7494975 1.5.752.57145912.0071715 1.11384283-.2514583 1.468-.7 1.577-2.084 3.5-2.882 5.408-2.244 1.792.6 5.8 1.371 8.12.023.8486333-.4783505 1.4331549-1.31722 1.588-2.279.1238056-.5244774.640941-.856525 1.1693679-.7508396s.8780721.611089.7906321 1.1428396c-.2635213 1.5226831-1.1961158 2.8468865-2.541 3.608-.3129772.1787303-.6408738.3299643-.98.452-8.17 6.373-10.714 18.962-11.31 22.748h18.117c-.3532441-2.8028893-.2831273-5.6429569.208-8.425.1842561-.997463.4446853-1.979338.779-2.937.005-.013.008-.026.014-.039.274-.82.582-1.661.9-2.528 1.752-4.711 3.933-10.571 2.033-18.179-.0890098-.349731-.2002356-.6934287-.333-1.029l-.008-.012c0-.011 0-.021-.006-.032-.4034794-1.0286965-1.0270467-1.9567094-1.827-2.719l-.02-.017c-.6832735-.63209754-1.4588328-1.15644303-2.3-1.555-.0343195-.01499272-.0677124-.03202308-.1-.051-.9829385-.45931097-2.015367-.80423669-3.077-1.028-.0781354-.00813013-.155016-.02558775-.229-.052-.3773333-.078-.759-.14466667-1.145-.2-.02 0-.04 0-.059-.01-1.9823467-.26188382-3.9855868-.32887062-5.981-.2-.044.007-.077.01-.11.013h-.005-.007c-.0564909.00551391-.113247.00785093-.17.007-.071 0-.14 0-.219.009h-.048c-.085.012-.209.022-.339.031-1.214.125-2.886.522-3.323 1.4-.991 1.981-5.216 6.265-8.978 8.616-.35090582.2217488-.62147957.5501524-.772.937h1.856c.55228475 0 1 .4477153 1 1s-.44771525 1-1 1h-2v.04c.00100145.4066129.13283345.8021088.376 1.128zm9.064-12.248h2c.5522847 0 1 .4477153 1 1s-.4477153 1-1 1h-2c-.5522847 0-1-.4477153-1-1s.4477153-1 1-1z" data-original="#000000" class="active-path" data-old_color="#000000" fill="#B9831C"/><path id="Shape" d="m22.675 2.7c-.845-.045-1.636-.042-2.356-.016.385229.81000773.6829146 1.65881396.888 2.532z" data-original="#000000" class="active-path" data-old_color="#000000" fill="#B9831C"/><path id="Shape" d="m31.14 13.408c.108.433.2.857.282 1.279l4.061-1.2c-.116-.713-.254-1.436-.438-2.179l-4.024 1.708c.038.134.086.258.119.392z" data-original="#000000" class="active-path" data-old_color="#000000" fill="#B9831C"/><path id="Shape" d="m4 53h-2c-.55228475 0-1 .4477153-1 1v1c0 .5522847.44771525 1 1 1h34c.5522847 0 1-.4477153 1-1v-1c0-.5522847-.4477153-1-1-1z" data-original="#000000" class="active-path" data-old_color="#000000" fill="#B9831C"/><path id="Shape" d="m30.283 11.16 4.111-1.746c-.3261877-.75956121-.7443096-1.47624562-1.245-2.134l-3.882 2.336c.3884612.4801172.7287655.9972725 1.016 1.544z" data-original="#000000" class="active-path" data-old_color="#000000" fill="#B9831C"/><path id="Shape" d="m27.8 8.163 3.923-2.363c-.656103-.55478925-1.3750146-1.0307074-2.142-1.418l-2.9 2.969c.3896413.24695885.7633779.51815999 1.119.812z" data-original="#000000" class="active-path" data-old_color="#000000" fill="#B9831C"/><path id="Shape" d="m27.592 3.558c-.8931098-.28220877-1.807357-.49254583-2.734-.629l-1.687 2.891c.5552875.1661211 1.1010985.36241279 1.635.588z" data-original="#000000" class="active-path" data-old_color="#000000" fill="#B9831C"/></g></g> </svg>
