<svg height="32" viewBox="0 0 512 512" width="32" xmlns="http://www.w3.org/2000/svg"><g id="filled_outline" data-name="filled outline"><path d="m256 248h48a197.2 197.2 0 0 0 10.119 62.358l5.881 17.642v24h-80v-24l5.881-17.642a197.2 197.2 0 0 0 10.119-62.358z" fill="#ec9e15"/><path d="m304.5 260.322c-.257-4.1-.5-8.205-.5-12.322h-48c0 4.117-.239 8.221-.5 12.322a31.531 31.531 0 0 0 48.992 0z" fill="#dc9315"/><path d="m232 344h96v40h-96z" fill="#dc9315"/><path d="m224 376h112v32h-112z" fill="#ec9e15"/><circle cx="280" cy="232" fill="#ec9e15" r="32"/><path d="m336 142.4-46.115 41.5a25.5 25.5 0 0 0 -2.854 34.886 25.5 25.5 0 0 0 37.068 2.939l43.901-37.725h8a80 80 0 0 0 64-32h48v-128h-151.163a48 48 0 0 0 -29.985 10.518l-48.837 39.07a48 48 0 0 0 -18.015 37.482v68.93a28 28 0 0 0 28 28 28 28 0 0 0 28-28v-60l24-20.571v28.571z" fill="#fad7be"/><path d="m24 456h464v32h-464z" fill="#ebebeb"/><path d="m64 456h128v32h-128z" fill="#b9b9b9"/><path d="m320 456h128v32h-128z" fill="#b9b9b9"/><path d="m192 432h-136.149l-7.851-8a87.519 87.519 0 0 1 29.478-92.383l34.522-27.617h-40l-3.6 3.6a35.185 35.185 0 0 1 -44.4 4.4v-24l27.351-27.351a110.246 110.246 0 0 0 20.649-28.649l-32-40 48 8a104 104 0 0 1 104 104z" fill="#4298d1"/><path d="m166.942 374.497h15.998v64.888h-15.998z" fill="#3b84bc" transform="matrix(.707 -.707 .707 .707 -236.512 242.893)"/><path d="m40 424h160v32h-160z" fill="#3b84bc"/><path d="m360 416h16v16h-16z" fill="#fbeebd"/><path d="m360 384h16v16h-16z" fill="#fbeebd"/><path d="m360 336h16v32h-16z" fill="#fbeebd"/><path d="m336.218 142.682-16.218-14.682v-28.565l32-27.435v32l14.21 11.399z" fill="#eeccb6"/><g fill="#3b84bc"><path d="m160 424h-16v-132.223a49.611 49.611 0 0 0 -27.578-44.621l7.156-14.312a65.525 65.525 0 0 1 36.422 58.933z"/><path d="m72.41 429.062a76.131 76.131 0 0 1 28.113-86.453l14.829-10.589 9.3 13.023-14.828 10.59a60.2 60.2 0 0 0 -22.234 68.367z"/><circle cx="88" cy="264" r="8"/></g><path d="m488 16h-151.2a56.007 56.007 0 0 0 -34.919 12.234l-48.889 39.128a55.77 55.77 0 0 0 -20.992 43.678v68.96a36.152 36.152 0 0 0 15.106 29.269 39.883 39.883 0 0 0 .719 46.449 191.131 191.131 0 0 1 -9.491 52.062l-5.92 17.68a8.007 8.007 0 0 0 -.414 2.54v8a8 8 0 0 0 -8 8v24a8 8 0 0 0 -8 8v32a8 8 0 0 0 8 8h112a8 8 0 0 0 8-8v-32a8 8 0 0 0 -8-8v-24a8 8 0 0 0 -8-8v-8a8.007 8.007 0 0 0 -.414-2.54l-5.907-17.64a191.253 191.253 0 0 1 -9.5-52.1 39.97 39.97 0 0 0 7.786-21.987 33.3 33.3 0 0 0 9.415-5.972l41.586-35.761h5.034a88.458 88.458 0 0 0 67.88-32h44.12a8 8 0 0 0 8-8v-128a8 8 0 0 0 -8-8zm-173.352 117.946 9.451 8.506-20.099 18.061v-36.832l8-6.853v11.172a8 8 0 0 0 2.648 5.946zm13.352-9.509v-21.323l16-13.714v14.6a8 8 0 0 0 2.994 6.24l6.843 5.489-17.77 15.971zm-52.208 90.7a33.91 33.91 0 0 0 4.993 8.649 33.288 33.288 0 0 0 22.833 12.438 24 24 0 0 1 -47.618-4.224 23.746 23.746 0 0 1 6.56-16.432 35.055 35.055 0 0 0 5.44.432 35.782 35.782 0 0 0 7.792-.861zm52.208 184.863h-96v-16h96zm-88-32v-16h80v16zm8-32v-6.7l5.519-16.484a208.454 208.454 0 0 0 9.474-44.628 39.886 39.886 0 0 0 34.014 0 208.7 208.7 0 0 0 9.487 44.667l5.506 16.445v6.7zm232-192h-40a8 8 0 0 0 -6.4 3.2 72.343 72.343 0 0 1 -57.6 28.8h-8a8 8 0 0 0 -5.215 1.934l-43.92 37.759c-.058.051-.116.1-.173.153a17.754 17.754 0 0 1 -8.5 4.229 16.5 16.5 0 0 1 -3.229.324 17.379 17.379 0 0 1 -13.65-6.569 17.6 17.6 0 0 1 -3.806-9.858c-.008-.127-.034-.25-.048-.376h.015a12.688 12.688 0 0 1 .084-2.667 17.4 17.4 0 0 1 5.712-11.058l75.809-68.121a8 8 0 0 0 .14-12.591l-11.216-9v-28.159a8 8 0 0 0 -13.207-6.073l-32 27.435-24 20.56a8 8 0 0 0 -2.796 6.078v54.89l-3.437 3.089a33.4 33.4 0 0 0 -10.909 21.184 19.472 19.472 0 0 1 -11.2.028 20.061 20.061 0 0 1 -14.454-19.191v-68.96a39.841 39.841 0 0 1 15-31.194l48.886-39.125a39.949 39.949 0 0 1 24.914-8.721h143.2z"/><path d="m488 448h-280v-24a8 8 0 0 0 -8-8v-112a112.131 112.131 0 0 0 -111.326-112l-47.359-7.893a8 8 0 0 0 -7.562 12.893l28.717 35.9a102 102 0 0 1 -16.776 22.1l-27.351 27.343a8 8 0 0 0 -2.343 5.657v24a8 8 0 0 0 3.562 6.656 43.3 43.3 0 0 0 54.491-5.395l1.26-1.261h13.881l-16.713 13.37a95.255 95.255 0 0 0 -34.446 90.883 8 8 0 0 0 -6.035 7.747v24h-8a8 8 0 0 0 -8 8v32a8 8 0 0 0 8 8h464a8 8 0 0 0 8-8v-32a8 8 0 0 0 -8-8zm-328-67.313v-17.374l24 24v17.374zm0-57.374 24 24v17.374l-24-24zm24 1.374-24-24v-8.91c0-1.389-.05-2.769-.134-4.142l24.134 20.112zm-24 78.626 12.687 12.687h-12.687zm-77.524-65.449 34.524-27.617a8 8 0 0 0 -5-14.247h-40a8 8 0 0 0 -5.657 2.343l-3.6 3.6a27.272 27.272 0 0 1 -30.743 5.405v-16.035l25.008-25.007a118.016 118.016 0 0 0 22.147-30.728 8 8 0 0 0 -.908-8.578l-18.939-23.672 27.377 4.563a8.056 8.056 0 0 0 1.315.109 96.159 96.159 0 0 1 94.187 77.408l-30.132-25.108a65.682 65.682 0 0 0 -28.477-27.454l-7.156 14.31a49.7 49.7 0 0 1 22.607 22.81l-.151.181.383.319a49.965 49.965 0 0 1 4.739 21.311v124.223h-58.484a60.149 60.149 0 0 1 24.306-60.368l14.828-10.591-9.3-13.02-14.828 10.592a76.052 76.052 0 0 0 -31.235 73.387h-15.022a79.309 79.309 0 0 1 28.211-78.136zm-34.476 94.136h144v16h-144zm-16 32h24v16h-24zm40 0h112v16h-112zm128 0h112v16h-112zm128 16v-16h112v16zm152 0h-24v-16h24z"/><path d="m360 416h16v16h-16z"/><path d="m360 384h16v16h-16z"/><path d="m360 336h16v32h-16z"/><circle cx="88" cy="264" r="8"/></g></svg>
